<svg width="49" height="43" viewBox="0 0 49 43" fill="none" xmlns="http://www.w3.org/2000/svg">
<path d="M41.3278 3L27.9854 16.1194C28.3658 16.7061 28.608 17.3948 28.6166 18.143C28.6339 20.2686 26.8958 22.0116 24.7427 22.0286C22.5809 22.0456 20.8083 20.3366 20.791 18.2195C20.7823 17.4458 21.0158 16.7231 21.4136 16.1109L8.07976 3C4.26639 7.0387 1.94897 12.4548 2.00085 18.3896C2.11327 30.6927 12.3947 40.6151 24.9156 40.5046C37.4366 40.3941 47.5278 30.2846 47.4067 17.9729C47.3548 12.1912 45.0461 6.93667 41.3278 3Z" stroke="#FFFFFF" stroke-width="3" stroke-miterlimit="10"/>
<path d="M24.7341 11.1199C26.524 11.1029 27.9595 9.66597 27.9422 7.90595C27.9249 6.14593 26.4635 4.73451 24.6736 4.75152C22.8836 4.76852 21.4482 6.21395 21.4655 7.96547C21.4828 9.72549 22.9441 11.1369 24.7341 11.1199Z" stroke="#FFFFFF" stroke-width="3" stroke-miterlimit="10"/>
</svg>
